# xmcd
#
# Track frame offsets: 
#        183
#        13608
#        24420
#        37295
#        51108
#        63883
#        76920
#        89133
#        99070
#        111858
#        123720
#        133683
#        146483
#        158445
#        174533
#        186270
#        198695
#        211608
#        226183
#        239420
#
# Disc length: 3348 seconds
#
# Revision: 4
# Processed by: cddbd v1.5.2PL0 Copyright (c) Steve Scherf et al.
# Submitted via: ExactAudioCopy v1.0b3
#
DISCID=0e0d1214
DTITLE=Howlin' Wolf - Tail Dragger (Zillion Records)
DYEAR=1992
DGENRE=Blues
TTITLE0=Tail Dragger
TTITLE1=Somebody In My Home
TTITLE2=I'm The Wolf
TTITLE3=Three Hundred Pounds Of Joy
TTITLE4=Killing Floor
TTITLE5=I Asked For Water (She Gave Me Gasoline)
TTITLE6=Louise
TTITLE7=Work For Your Money
TTITLE8=Tell Me What I've Done
TTITLE9=Built For Comfort
TTITLE10=The Natchez Burning
TTITLE11=Fourty Four
TTITLE12=Ooh Baby, Hold Me
TTITLE13=Blue Bird
TTITLE14=I Have A Little Girl
TTITLE15=Neighbors
TTITLE16=Walk To Camp Hall
TTITLE17=I Have A Little Girl
TTITLE18=Nature
TTITLE19=My Country Sugar Mama (aka Sugar Mama)
EXTD=
EXTT0=
EXTT1=
EXTT2=
EXTT3=
EXTT4=
EXTT5=
EXTT6=
EXTT7=
EXTT8=
EXTT9=
EXTT10=
EXTT11=
EXTT12=
EXTT13=
EXTT14=
EXTT15=
EXTT16=
EXTT17=
EXTT18=
EXTT19=
PLAYORDER=
